<mxfile host="www.draw.io" modified="2019-12-23T08:53:59.978Z" agent="Mozilla/5.0 (Windows NT 10.0; Win64; x64) AppleWebKit/537.36 (KHTML, like Gecko) Chrome/79.0.3945.88 Safari/537.36" etag="Ii_RrUqo9AjnpbfMSFC6" version="12.4.3" type="github" pages="1">
  <diagram id="gvvu61FvG1a0Ipkqw0a3" name="Page-1">
    <mxGraphModel dx="716" dy="378" grid="1" gridSize="10" guides="1" tooltips="1" connect="1" arrows="1" fold="1" page="1" pageScale="1" pageWidth="850" pageHeight="1100" math="0" shadow="0">
      <root>
        <mxCell id="0"/>
        <mxCell id="1" parent="0"/>
        <mxCell id="EbPgzNZNuWkULzcr1lJL-2" value="" style="shape=umlLifeline;participant=umlActor;perimeter=lifelinePerimeter;whiteSpace=wrap;html=1;container=1;collapsible=0;recursiveResize=0;verticalAlign=top;spacingTop=36;labelBackgroundColor=#ffffff;outlineConnect=0;" parent="1" vertex="1">
          <mxGeometry x="100" y="50" width="20" height="630" as="geometry"/>
        </mxCell>
        <mxCell id="EbPgzNZNuWkULzcr1lJL-8" value="" style="html=1;points=[];perimeter=orthogonalPerimeter;" parent="EbPgzNZNuWkULzcr1lJL-2" vertex="1">
          <mxGeometry x="5" y="70" width="10" height="90" as="geometry"/>
        </mxCell>
        <mxCell id="EbPgzNZNuWkULzcr1lJL-23" value="" style="html=1;points=[];perimeter=orthogonalPerimeter;fontSize=10;" parent="EbPgzNZNuWkULzcr1lJL-2" vertex="1">
          <mxGeometry x="5" y="190" width="10" height="170" as="geometry"/>
        </mxCell>
        <mxCell id="EbPgzNZNuWkULzcr1lJL-38" value="" style="html=1;points=[];perimeter=orthogonalPerimeter;fontSize=10;" parent="EbPgzNZNuWkULzcr1lJL-2" vertex="1">
          <mxGeometry x="5" y="410" width="10" height="190" as="geometry"/>
        </mxCell>
        <mxCell id="EbPgzNZNuWkULzcr1lJL-4" value="support" style="shape=umlLifeline;perimeter=lifelinePerimeter;whiteSpace=wrap;html=1;container=1;collapsible=0;recursiveResize=0;outlineConnect=0;" parent="1" vertex="1">
          <mxGeometry x="520" y="50" width="100" height="620" as="geometry"/>
        </mxCell>
        <mxCell id="EbPgzNZNuWkULzcr1lJL-10" value="" style="html=1;points=[];perimeter=orthogonalPerimeter;" parent="EbPgzNZNuWkULzcr1lJL-4" vertex="1">
          <mxGeometry x="45" y="70" width="10" height="80" as="geometry"/>
        </mxCell>
        <mxCell id="EbPgzNZNuWkULzcr1lJL-32" value="" style="html=1;points=[];perimeter=orthogonalPerimeter;fontSize=10;" parent="EbPgzNZNuWkULzcr1lJL-4" vertex="1">
          <mxGeometry x="45" y="250" width="10" height="60" as="geometry"/>
        </mxCell>
        <mxCell id="EbPgzNZNuWkULzcr1lJL-40" value="" style="html=1;points=[];perimeter=orthogonalPerimeter;fontSize=10;" parent="EbPgzNZNuWkULzcr1lJL-4" vertex="1">
          <mxGeometry x="45" y="470" width="10" height="50" as="geometry"/>
        </mxCell>
        <mxCell id="EbPgzNZNuWkULzcr1lJL-7" value="&amp;lt;&amp;lt;SYSTEM&amp;gt;&amp;gt;" style="shape=umlLifeline;perimeter=lifelinePerimeter;whiteSpace=wrap;html=1;container=1;collapsible=0;recursiveResize=0;outlineConnect=0;" parent="1" vertex="1">
          <mxGeometry x="240" y="50" width="100" height="630" as="geometry"/>
        </mxCell>
        <mxCell id="EbPgzNZNuWkULzcr1lJL-9" value="" style="html=1;points=[];perimeter=orthogonalPerimeter;" parent="EbPgzNZNuWkULzcr1lJL-7" vertex="1">
          <mxGeometry x="45" y="70" width="10" height="80" as="geometry"/>
        </mxCell>
        <mxCell id="EbPgzNZNuWkULzcr1lJL-20" value="" style="html=1;points=[];perimeter=orthogonalPerimeter;" parent="EbPgzNZNuWkULzcr1lJL-7" vertex="1">
          <mxGeometry x="45" y="190" width="10" height="150" as="geometry"/>
        </mxCell>
        <mxCell id="EbPgzNZNuWkULzcr1lJL-30" value="sendTicketResponse()" style="endArrow=block;endFill=1;html=1;edgeStyle=orthogonalEdgeStyle;align=left;verticalAlign=top;fontSize=10;" parent="EbPgzNZNuWkULzcr1lJL-7" edge="1">
          <mxGeometry x="-0.5374" y="30" relative="1" as="geometry">
            <mxPoint x="60" y="250" as="sourcePoint"/>
            <mxPoint x="320" y="250" as="targetPoint"/>
            <Array as="points">
              <mxPoint x="150" y="250"/>
              <mxPoint x="150" y="250"/>
            </Array>
            <mxPoint as="offset"/>
          </mxGeometry>
        </mxCell>
        <mxCell id="EbPgzNZNuWkULzcr1lJL-39" value="" style="html=1;points=[];perimeter=orthogonalPerimeter;fontSize=10;" parent="EbPgzNZNuWkULzcr1lJL-7" vertex="1">
          <mxGeometry x="45" y="410" width="10" height="140" as="geometry"/>
        </mxCell>
        <mxCell id="V1O_RBbqrW9sB_L1bsFt-1" value="" style="endArrow=classic;html=1;" edge="1" parent="EbPgzNZNuWkULzcr1lJL-7">
          <mxGeometry width="50" height="50" relative="1" as="geometry">
            <mxPoint x="60" y="90" as="sourcePoint"/>
            <mxPoint x="320" y="90" as="targetPoint"/>
          </mxGeometry>
        </mxCell>
        <mxCell id="EbPgzNZNuWkULzcr1lJL-17" value="" style="endArrow=classic;dashed=1;endFill=1;endSize=12;html=1;" parent="1" edge="1">
          <mxGeometry width="160" relative="1" as="geometry">
            <mxPoint x="560" y="190" as="sourcePoint"/>
            <mxPoint x="300" y="190" as="targetPoint"/>
          </mxGeometry>
        </mxCell>
        <mxCell id="EbPgzNZNuWkULzcr1lJL-18" value="" style="endArrow=classic;dashed=1;endFill=1;endSize=12;html=1;entryX=0.99;entryY=0.896;entryDx=0;entryDy=0;entryPerimeter=0;" parent="1" edge="1" target="EbPgzNZNuWkULzcr1lJL-8">
          <mxGeometry width="160" relative="1" as="geometry">
            <mxPoint x="282.5" y="200" as="sourcePoint"/>
            <mxPoint x="122.5" y="200" as="targetPoint"/>
            <Array as="points">
              <mxPoint x="202.5" y="200"/>
            </Array>
          </mxGeometry>
        </mxCell>
        <mxCell id="EbPgzNZNuWkULzcr1lJL-21" value="return all unresponded tickets" style="text;strokeColor=none;fillColor=none;align=left;verticalAlign=top;spacingLeft=4;spacingRight=4;overflow=hidden;rotatable=0;points=[[0,0.5],[1,0.5]];portConstraint=eastwest;fontSize=10;" parent="1" vertex="1">
          <mxGeometry x="355" y="170" width="140" height="20" as="geometry"/>
        </mxCell>
        <mxCell id="EbPgzNZNuWkULzcr1lJL-22" value="return all un_responded tickets" style="text;strokeColor=none;fillColor=none;align=left;verticalAlign=top;spacingLeft=4;spacingRight=4;overflow=hidden;rotatable=0;points=[[0,0.5],[1,0.5]];portConstraint=eastwest;fontSize=10;" parent="1" vertex="1">
          <mxGeometry x="130" y="180" width="155" height="26" as="geometry"/>
        </mxCell>
        <mxCell id="EbPgzNZNuWkULzcr1lJL-24" value="Click To Send Response To Ticket" style="endArrow=block;endFill=1;html=1;edgeStyle=orthogonalEdgeStyle;align=left;verticalAlign=top;fontSize=10;" parent="1" edge="1">
          <mxGeometry x="-1" relative="1" as="geometry">
            <mxPoint x="120" y="250" as="sourcePoint"/>
            <mxPoint x="280" y="250" as="targetPoint"/>
          </mxGeometry>
        </mxCell>
        <mxCell id="EbPgzNZNuWkULzcr1lJL-26" value="" style="endArrow=block;endFill=1;html=1;edgeStyle=orthogonalEdgeStyle;align=left;verticalAlign=top;fontSize=10;" parent="1" edge="1">
          <mxGeometry x="-1" relative="1" as="geometry">
            <mxPoint x="120" y="250" as="sourcePoint"/>
            <mxPoint x="280" y="250" as="targetPoint"/>
            <Array as="points">
              <mxPoint x="220" y="250"/>
              <mxPoint x="220" y="250"/>
            </Array>
          </mxGeometry>
        </mxCell>
        <mxCell id="EbPgzNZNuWkULzcr1lJL-28" value="write response ticket message text" style="endArrow=block;endFill=1;html=1;edgeStyle=orthogonalEdgeStyle;align=left;verticalAlign=top;fontSize=10;" parent="1" edge="1">
          <mxGeometry x="-1" relative="1" as="geometry">
            <mxPoint x="120" y="280" as="sourcePoint"/>
            <mxPoint x="280" y="280.07" as="targetPoint"/>
            <Array as="points">
              <mxPoint x="280" y="280.07"/>
            </Array>
            <mxPoint as="offset"/>
          </mxGeometry>
        </mxCell>
        <mxCell id="EbPgzNZNuWkULzcr1lJL-34" value="" style="endArrow=block;dashed=1;endFill=1;endSize=12;html=1;fontSize=10;" parent="1" edge="1">
          <mxGeometry width="160" relative="1" as="geometry">
            <mxPoint x="560" y="360" as="sourcePoint"/>
            <mxPoint x="296" y="360" as="targetPoint"/>
          </mxGeometry>
        </mxCell>
        <mxCell id="EbPgzNZNuWkULzcr1lJL-35" value="return Sending Response" style="text;strokeColor=none;fillColor=none;align=center;verticalAlign=top;spacingLeft=4;spacingRight=4;overflow=hidden;rotatable=0;points=[[0,0.5],[1,0.5]];portConstraint=eastwest;fontSize=10;" parent="1" vertex="1">
          <mxGeometry x="317.5" y="360" width="172.5" height="26" as="geometry"/>
        </mxCell>
        <mxCell id="EbPgzNZNuWkULzcr1lJL-36" value="Show Sending Status" style="text;strokeColor=none;fillColor=none;align=left;verticalAlign=top;spacingLeft=4;spacingRight=4;overflow=hidden;rotatable=0;points=[[0,0.5],[1,0.5]];portConstraint=eastwest;fontSize=9;" parent="1" vertex="1">
          <mxGeometry x="140" y="360" width="100" height="26" as="geometry"/>
        </mxCell>
        <mxCell id="EbPgzNZNuWkULzcr1lJL-37" value="" style="endArrow=blockThin;dashed=1;endFill=1;endSize=12;html=1;fontSize=10;" parent="1" edge="1">
          <mxGeometry width="160" relative="1" as="geometry">
            <mxPoint x="280" y="386" as="sourcePoint"/>
            <mxPoint x="113.5" y="386" as="targetPoint"/>
          </mxGeometry>
        </mxCell>
        <mxCell id="EbPgzNZNuWkULzcr1lJL-41" value="asks to delete" style="endArrow=block;endFill=1;html=1;edgeStyle=orthogonalEdgeStyle;align=left;verticalAlign=top;fontSize=10;" parent="1" edge="1">
          <mxGeometry x="-0.5" y="20" relative="1" as="geometry">
            <mxPoint x="120" y="500" as="sourcePoint"/>
            <mxPoint x="280" y="500" as="targetPoint"/>
            <mxPoint as="offset"/>
          </mxGeometry>
        </mxCell>
        <mxCell id="EbPgzNZNuWkULzcr1lJL-43" value="select a ticket" style="endArrow=block;endFill=1;html=1;edgeStyle=orthogonalEdgeStyle;align=left;verticalAlign=top;fontSize=10;" parent="1" edge="1">
          <mxGeometry x="-0.5" y="20" relative="1" as="geometry">
            <mxPoint x="120" y="470" as="sourcePoint"/>
            <mxPoint x="280" y="470" as="targetPoint"/>
            <mxPoint as="offset"/>
          </mxGeometry>
        </mxCell>
        <mxCell id="EbPgzNZNuWkULzcr1lJL-47" value="" style="endArrow=blockThin;dashed=1;endFill=1;endSize=12;html=1;fontSize=10;" parent="1" edge="1">
          <mxGeometry width="160" relative="1" as="geometry">
            <mxPoint x="560" y="570" as="sourcePoint"/>
            <mxPoint x="299" y="570" as="targetPoint"/>
          </mxGeometry>
        </mxCell>
        <mxCell id="EbPgzNZNuWkULzcr1lJL-48" value="return Response" style="text;strokeColor=none;fillColor=none;align=left;verticalAlign=top;spacingLeft=4;spacingRight=4;overflow=hidden;rotatable=0;points=[[0,0.5],[1,0.5]];portConstraint=eastwest;fontSize=10;" parent="1" vertex="1">
          <mxGeometry x="375" y="544" width="100" height="26" as="geometry"/>
        </mxCell>
        <mxCell id="EbPgzNZNuWkULzcr1lJL-49" value="" style="endArrow=block;dashed=1;endFill=0;endSize=12;html=1;fontSize=10;entryX=1.5;entryY=0.737;entryDx=0;entryDy=0;entryPerimeter=0;" parent="1" target="EbPgzNZNuWkULzcr1lJL-38" edge="1">
          <mxGeometry width="160" relative="1" as="geometry">
            <mxPoint x="290" y="600" as="sourcePoint"/>
            <mxPoint x="160" y="600" as="targetPoint"/>
          </mxGeometry>
        </mxCell>
        <mxCell id="EbPgzNZNuWkULzcr1lJL-50" value="Show Delete Message" style="text;strokeColor=none;fillColor=none;align=left;verticalAlign=top;spacingLeft=4;spacingRight=4;overflow=hidden;rotatable=0;points=[[0,0.5],[1,0.5]];portConstraint=eastwest;fontSize=10;" parent="1" vertex="1">
          <mxGeometry x="150" y="580" width="110" height="30" as="geometry"/>
        </mxCell>
        <mxCell id="V1O_RBbqrW9sB_L1bsFt-2" value="getTickets()" style="text;html=1;align=center;verticalAlign=middle;resizable=0;points=[];;autosize=1;" vertex="1" parent="1">
          <mxGeometry x="385" y="120" width="80" height="20" as="geometry"/>
        </mxCell>
        <mxCell id="EbPgzNZNuWkULzcr1lJL-11" value="asks for tickets" style="endArrow=block;endFill=1;html=1;edgeStyle=orthogonalEdgeStyle;align=left;verticalAlign=top;" parent="1" edge="1">
          <mxGeometry x="-1" relative="1" as="geometry">
            <mxPoint x="120" y="120" as="sourcePoint"/>
            <mxPoint x="280" y="120" as="targetPoint"/>
          </mxGeometry>
        </mxCell>
        <mxCell id="EbPgzNZNuWkULzcr1lJL-45" value="deleteTicket()" style="endArrow=block;endFill=1;html=1;edgeStyle=orthogonalEdgeStyle;align=left;verticalAlign=top;fontSize=10;" parent="1" edge="1">
          <mxGeometry x="-0.3585" y="20" relative="1" as="geometry">
            <mxPoint x="295" y="520" as="sourcePoint"/>
            <mxPoint x="560" y="520" as="targetPoint"/>
            <mxPoint as="offset"/>
          </mxGeometry>
        </mxCell>
      </root>
    </mxGraphModel>
  </diagram>
</mxfile>
